<svg xmlns="http://www.w3.org/2000/svg" version="1.1" xmlns:xlink="http://www.w3.org/1999/xlink" xmlns:svgjs="http://svgjs.dev/svgjs" width="2000" height="585" viewBox="0 0 2000 585"><g transform="matrix(1,0,0,1,-1.2121212121212466,0.549261145729929)"><svg viewBox="0 0 396 116" data-background-color="#191717" preserveAspectRatio="xMidYMid meet" height="585" width="2000" xmlns="http://www.w3.org/2000/svg" xmlns:xlink="http://www.w3.org/1999/xlink"><g id="tight-bounds" transform="matrix(1,0,0,1,0.2400000000000091,-0.10891332120456809)"><svg viewBox="0 0 395.52 116.21782664240916" height="116.21782664240916" width="395.52"><g><svg viewBox="0 0 395.52 116.21782664240916" height="116.21782664240916" width="395.52"><g><svg viewBox="0 0 395.52 116.21782664240916" height="116.21782664240916" width="395.52"><g><svg viewBox="0 0 580.7352276850897 170.64064021097738" height="116.21782664240916" width="395.52"><g transform="matrix(1,0,0,1,185.2152276850898,54.451897491346614)"><svg viewBox="0 0 395.5199999999999 61.736845228284146" height="61.736845228284146" width="395.5199999999999"><g id="textblocktransform"><svg viewBox="0 0 395.5199999999999 61.736845228284146" height="61.736845228284146" width="395.5199999999999" id="textblock"><g><svg viewBox="0 0 395.5199999999999 61.736845228284146" height="61.736845228284146" width="395.5199999999999"><g transform="matrix(1,0,0,1,0,0)"><svg width="395.5199999999999" viewBox="2.25 -36.85 303.33 47.35" height="61.736845228284146" data-palette-color="#ccc8aa"><path d="M20.1-35Q27.75-35 32.2-31.18 36.65-27.35 36.65-20.25L36.65-20.25 26.1-20.25Q26.1-23.25 24.53-25 22.95-26.75 20.05-26.75L20.05-26.75Q16.7-26.75 15.13-24.65 13.55-22.55 13.55-18.8L13.55-18.8 13.55-15.6Q13.55-11.9 15.13-9.78 16.7-7.65 19.95-7.65L19.95-7.65Q23.15-7.65 24.8-9.3 26.45-10.95 26.45-13.95L26.45-13.95 36.65-13.95Q36.65-6.9 32.33-3.15 28 0.6 20.1 0.6L20.1 0.6Q11.3 0.6 6.78-3.9 2.25-8.4 2.25-17.2L2.25-17.2Q2.25-26 6.78-30.5 11.3-35 20.1-35L20.1-35ZM55.55-27Q62.5-27 66.47-23.48 70.45-19.95 70.45-13.2L70.45-13.2Q70.45-6.45 66.47-2.93 62.5 0.6 55.55 0.6L55.55 0.6Q48.6 0.6 44.65-2.9 40.7-6.4 40.7-13.2L40.7-13.2Q40.7-20 44.65-23.5 48.6-27 55.55-27L55.55-27ZM55.55-20.25Q50.65-20.25 50.65-14.6L50.65-14.6 50.65-11.75Q50.65-6.15 55.55-6.15L55.55-6.15Q60.5-6.15 60.5-11.75L60.5-11.75 60.5-14.6Q60.5-20.25 55.55-20.25L55.55-20.25ZM110.3-27Q114.8-27 117.05-24.43 119.3-21.85 119.3-17.1L119.3-17.1 119.3 0 109.34 0 109.34-15.9Q109.34-17.6 108.52-18.63 107.7-19.65 106.2-19.65L106.2-19.65Q104.45-19.65 103.34-18.45 102.25-17.25 102.25-15.5L102.25-15.5 102.25 0 92.3 0 92.3-15.9Q92.3-17.6 91.47-18.63 90.65-19.65 89.15-19.65L89.15-19.65Q87.4-19.65 86.3-18.45 85.2-17.25 85.2-15.5L85.2-15.5 85.2 0 75.25 0 75.25-26.4 83.4-26.4 84.05-22.45Q85.55-24.55 88.02-25.78 90.5-27 93.25-27L93.25-27Q99.2-27 101.25-22.45L101.25-22.45Q102.8-24.55 105.22-25.78 107.65-27 110.3-27L110.3-27ZM160.29-27Q164.79-27 167.04-24.43 169.29-21.85 169.29-17.1L169.29-17.1 169.29 0 159.34 0 159.34-15.9Q159.34-17.6 158.52-18.63 157.69-19.65 156.19-19.65L156.19-19.65Q154.44-19.65 153.34-18.45 152.24-17.25 152.24-15.5L152.24-15.5 152.24 0 142.29 0 142.29-15.9Q142.29-17.6 141.47-18.63 140.64-19.65 139.14-19.65L139.14-19.65Q137.39-19.65 136.29-18.45 135.19-17.25 135.19-15.5L135.19-15.5 135.19 0 125.24 0 125.24-26.4 133.39-26.4 134.04-22.45Q135.54-24.55 138.02-25.78 140.49-27 143.24-27L143.24-27Q149.19-27 151.24-22.45L151.24-22.45Q152.79-24.55 155.22-25.78 157.64-27 160.29-27L160.29-27ZM202.54 0L194.39 0 193.74-4Q192.19-1.85 189.67-0.63 187.14 0.6 184.34 0.6L184.34 0.6Q179.74 0.6 177.44-1.95 175.14-4.5 175.14-9.3L175.14-9.3 175.14-26.4 185.09-26.4 185.09-10.5Q185.09-8.8 185.97-7.78 186.84-6.75 188.44-6.75L188.44-6.75Q190.29-6.75 191.44-7.95 192.59-9.15 192.59-10.9L192.59-10.9 192.59-26.4 202.54-26.4 202.54 0ZM226.79-27Q231.39-27 233.69-24.45 235.99-21.9 235.99-17.1L235.99-17.1 235.99 0 226.04 0 226.04-15.9Q226.04-17.6 225.16-18.63 224.29-19.65 222.69-19.65L222.69-19.65Q220.84-19.65 219.69-18.45 218.54-17.25 218.54-15.5L218.54-15.5 218.54 0 208.59 0 208.59-26.4 216.74-26.4 217.39-22.4Q218.94-24.5 221.46-25.75 223.99-27 226.79-27L226.79-27ZM252.24-29.5L242.28-29.5 242.28-36.25 252.24-36.25 252.24-29.5ZM252.24 0L242.28 0 242.28-26.4 252.24-26.4 252.24 0ZM269.33-36.85Q270.43-36.85 272.08-36.58 273.73-36.3 274.73-35.95L274.73-35.95 274.73-30.1 272.43-30.1Q270.83-30.1 270.23-29.5 269.63-28.9 269.63-27.45L269.63-27.45 269.63-26.4 274.73-26.4 274.73-19.65 269.63-19.65 269.63 0 259.68 0 259.68-19.65 255.98-19.65 255.98-26.4 259.68-26.4 259.68-27.5Q259.68-32.6 262.18-34.73 264.68-36.85 269.33-36.85L269.33-36.85ZM296.18-0.8Q294.13 4.75 291.16 7.63 288.18 10.5 282.83 10.5L282.83 10.5Q279.58 10.5 277.08 9.6L277.08 9.6 277.08 3.65 281.08 3.65Q284.83 3.65 285.53 0L285.53 0 275.03-26.4 285.73-26.4 290.78-8.85 291.13-8.85 295.78-26.4 305.58-26.4 296.18-0.8Z" opacity="1" transform="matrix(1,0,0,1,0,0)" fill="#ccc8aa" class="wordmark-text-0" data-fill-palette-color="primary" id="text-0"></path></svg></g></svg></g></svg></g></svg></g><g><svg viewBox="0 0 170.64064021097738 170.64064021097738" height="170.64064021097738" width="170.64064021097738"><g><svg xmlns="http://www.w3.org/2000/svg" xmlns:xlink="http://www.w3.org/1999/xlink" version="1.1" x="0" y="0" viewBox="0 0 100 100" style="enable-background:new 0 0 100 100;" xml:space="preserve" height="170.64064021097738" width="170.64064021097738" class="icon-icon-0" data-fill-palette-color="accent" id="icon-0"><path d="M87.5 75c-3.039 0-5.725 1.221-7.886 3.016l-19.056-13.6c1.209-2.49 1.941-5.225 1.941-8.166 0-4.041-1.318-7.775-3.491-10.828l22.29-22.302C83.154 24.207 85.193 25 87.5 25c6.909 0 12.5-5.591 12.5-12.5S94.409 0 87.5 0 75 5.591 75 12.5c0 2.307 0.793 4.346 1.88 6.201L54.59 41.004c-3.076-2.197-6.787-3.504-10.84-3.504-7.153 0-13.306 4.064-16.467 9.973l-15.052-5.029C11.621 39.637 9.24 37.5 6.25 37.5 2.795 37.5 0 40.295 0 43.75S2.795 50 6.25 50c1.574 0 2.979-0.635 4.077-1.6l14.966 4.993C25.146 54.334 25 55.273 25 56.25 25 66.602 33.398 75 43.75 75c5.151 0 9.826-2.088 13.221-5.457l18.933 13.514C75.366 84.448 75 85.926 75 87.5c0 6.896 5.591 12.5 12.5 12.5S100 94.396 100 87.5 94.409 75 87.5 75z" fill="#ccc8aa" data-fill-palette-color="accent"></path></svg></g></svg></g></svg></g></svg></g></svg></g><defs></defs></svg><rect width="395.52" height="116.21782664240916" fill="none" stroke="none" visibility="hidden"></rect></g></svg></g></svg>